<svg xmlns="http://www.w3.org/2000/svg" viewBox="0 0 489.66 489.47"><g id="Livello_2" data-name="Livello 2"><g id="Livello_1-2" data-name="Livello 1"><path d="M224.74,0h40.17a11.08,11.08,0,0,0,1.84.48,217.79,217.79,0,0,1,59.48,12.79q115,42.8,153.28,159.32c5.51,16.79,8.28,34.18,10.15,51.72v40.08c-.63,5.2-1.1,10.42-1.9,15.59-6.14,39.84-20.54,76.42-44.76,108.74-45.68,61-106.91,94.39-182.89,100.07a227.19,227.19,0,0,1-96.78-13.39q-114.66-42.6-153-158.76C4.67,299.69,1.85,282.12,0,264.39V224.31a24.68,24.68,0,0,0,.54-2.8A215.27,215.27,0,0,1,13.3,163.1q42.87-114.76,159.63-153C189.76,4.62,207.19,1.92,224.74,0Zm215,244.49c1-106.35-87.88-194.68-194.56-194.89s-195.42,88-195.5,194.61c-.09,106.35,88.07,194.68,194.75,194.89S440.58,351.14,439.76,244.49Z"/><path d="M156.91,152.34c3.34-.16,6.32,2.59,9.36,5.16q35,29.67,69.89,59.4c2.22,1.91,4.35,2.9,7.31,2.47a10.29,10.29,0,0,1,5.18.44c5.53,2.33,9.68.48,14.33-2.84,32.29-23,64.78-45.77,97.22-68.58,7.78-5.48,13.89-4.84,18.6,1.85,4.23,6,3.3,12-3,16.56C367.33,173,358.67,179,350.07,185q-37.89,26.67-75.83,53.3a9.58,9.58,0,0,0-4.44,7.76c-1,10.16-6.17,17.75-15.86,21.37-4.12,1.54-5.1,3.71-5.09,7.73q.17,62,.06,124.08c0,1.91,0,3.82-.17,5.72-.19,2.56-2,2.88-4.12,2.86s-3.53-.54-3.7-2.79c-.14-1.9-.18-3.82-.18-5.72q0-61.8.07-123.61c0-4.32-.95-6.75-5.47-8.44-9.3-3.48-14.23-10.94-15.49-20.65a9.3,9.3,0,0,0-3.51-6.4q-34.83-29.47-69.56-59.06c-9.51-8.06-9.86-12.09-1.77-21.83C147.89,155.87,150.76,152.44,156.91,152.34Z"/></g></g></svg>