<svg xmlns="http://www.w3.org/2000/svg" viewBox="0 0 512 432.38"><g id="Livello_2" data-name="Livello 2"><g id="Livello_1-2" data-name="Livello 1"><path d="M0,.19C26.8.16,53.6.19,80.4,0,84.51,0,86,1.49,86,5.57c-.11,29.46.1,58.92-.13,88.38-.12,15.52-4.27,29.79-16.6,40.25C46.29,153.67,13.61,144,3,114.7c-1.13-3.12-2-6.34-3-9.51Z"/><path d="M512,105.19c-1.71,4.85-2.68,9.94-5.13,14.55-8.67,16.3-21.81,25.73-40.63,24.31-18.07-1.36-29.67-12.16-36.36-28.57-3.07-7.54-3.69-15.55-3.73-23.53-.15-28.3-.07-56.59,0-84.89,0-6.82.15-7,7-6.95q39.45,0,78.9.08Z"/><path d="M175.77,432.27H49.31c-7.16,0-7.21,0-7.22-7.27V173.07c0-5.5-.79-7.46,7.22-8.29,18-1.87,32.31-10.72,43.25-25.07,3.44-4.52,3.43-4.53,7,.17,26,34.17,74.88,33.79,100.09-.94,3-4.09,4.08-2.52,6.29.4,18.4,24.31,47.55,32.43,74.72,20.66A58.52,58.52,0,0,0,306,139.46c2.39-3.45,3.7-4.16,6.65-.3,23.95,31.33,63.7,35,92.82,8.69,3.18-2.87,5.72-6.48,8.33-9.92,1.7-2.24,2.82-2.3,4.47,0,11.77,16.36,27.58,25.7,47.8,27.26,2.4.19,3.67,1.36,3.78,3.74.08,1.66.11,3.33.11,5V423.86c0,8.41,0,8.41-8.58,8.41-13,0-26-.2-39,.1-5.1.12-6.54-1.62-6.53-6.61q.23-83.22.09-166.45c0-8.11,0-8.11-8.31-8.11h-91c-6.48,0-6.7.23-6.7,6.8q0,83.22,0,166.46c0,7.8,0,7.81-7.67,7.81Zm.26-86h73c6.71,0,6.87-.15,6.87-6.58,0-27.34-.1-54.67.11-82,0-5-1.47-6.61-6.54-6.59q-73.5.24-147,0c-5.13,0-6.51,1.69-6.48,6.64.2,27.33.09,54.67.11,82,0,6.3.21,6.52,6.43,6.53Q139.28,346.3,176,346.28Z"/><path d="M299,52.51c0,15,.39,30-.1,45-.63,19.44-8.71,35.1-26.93,43.35-21.3,9.65-45.7-1.23-54.72-23.44A56.29,56.29,0,0,1,213,96Q213,51.51,213,7c0-6.82.11-6.92,7-6.93,24.15,0,48.3.12,72.45-.1,5,0,6.71,1.47,6.62,6.54C298.83,21.86,299,37.19,299,52.51Z"/><path d="M319.92,53c0-15.66.13-31.31-.09-47-.06-4.62,1.58-6,6.09-6q37,.24,73.95,0c4.57,0,6.13,1.48,6.11,6-.14,29.15.07,58.3-.14,87.44-.11,15.69-4.14,30.17-16.66,40.76-22.84,19.3-55.27,9.8-66.1-19.19A47.87,47.87,0,0,1,319.9,98C320,83,319.92,68,319.92,53Z"/><path d="M192.06,53.58c0,15.33.16,30.65,0,46-.27,20.64-15.21,39.75-33.88,43.75-20.61,4.42-40.58-7.15-48.31-27.84a65,65,0,0,1-3.66-22.56c-.19-28.81,0-57.63-.17-86.44C106,1.3,107.81,0,112.71,0q36.48.3,73,0c5.1,0,6.61,1.64,6.52,6.62-.26,15.65-.09,31.31-.09,47Z"/></g></g></svg>