<svg id="Livello_1" data-name="Livello 1" xmlns="http://www.w3.org/2000/svg" viewBox="0 0 128 128"><path d="M1003,533v7a48.72,48.72,0,0,1-13,13h-7c-2.73-2.37-5.61-4.59-8.18-7.12-11-10.9-22-21.83-32.85-32.91-2.31-2.36-3.7-2.41-5.93,0-3.81,4.18-7.88,8.14-12,12-9.73,9.27-18.4,19.65-29.06,28h-7a49.91,49.91,0,0,1-13-13v-7c2.24-2.6,4.33-5.35,6.74-7.79q16.65-16.82,33.48-33.44c2.18-2.14,2.26-3.45,0-5.54-4-3.7-7.87-7.62-11.65-11.59C894.1,464.71,883.52,455.85,875,445v-7a49.61,49.61,0,0,1,13-13h7c2.61,2.23,5.37,4.31,7.81,6.72q16.82,16.63,33.43,33.47c2.13,2.18,3.46,2.31,5.54,0,3.23-3.57,6.7-6.92,10.18-10.24,10.4-9.94,19.73-21,31-30h7a48.87,48.87,0,0,1,13,13v7a71.13,71.13,0,0,1-7.41,8.59C984.7,464.38,974,475.32,963,486c-2.36,2.3-2.45,3.69,0,5.92,4.18,3.81,8.14,7.88,12,12C984.32,513.67,994.7,522.34,1003,533Z" transform="translate(-875 -425)"/></svg>